<svg xmlns="http://www.w3.org/2000/svg" viewBox="0 0 73.28 73.22"><defs><style>.cls-1{fill:#d7df23;}</style></defs><g id="Layer_2" data-name="Layer 2"><g id="Layer_1-2" data-name="Layer 1"><path class="cls-1" d="M36.64,73.22q-14.52,0-29,0a7.31,7.31,0,0,1-6.38-3.5A7.14,7.14,0,0,1,.05,66.15c0-.81,0-1.61,0-2.41V8.12A8.11,8.11,0,0,1,1,4,7.18,7.18,0,0,1,7.39,0Q36.64,0,65.9,0a7.55,7.55,0,0,1,6.86,4.85,8.7,8.7,0,0,1,.52,3V65.37a7.65,7.65,0,0,1-5,7.4,7.14,7.14,0,0,1-2.55.45Zm-.19-40.33h5.79c.62,0,.62,0,.62-.64V28.56c0-.58,0-.58-.6-.58h-12c-.11,0-.23,0-.35,0s-.39-.1-.39-.38,0-.63,0-1c-.1-1.77-.21-3.55-.31-5.33-.06-1.09-.1-2.18-.2-3.27,0-.37,0-.52.41-.59a5.06,5.06,0,0,0,3.09-1.85,5.2,5.2,0,1,0-8.75-1.07,1.4,1.4,0,0,1,.15.53c0,.78.11,1.55.17,2.33.13,1.73.25,3.47.38,5.2.09,1.25.17,2.5.26,3.75.12,1.74.25,3.47.37,5.21.09,1.22.17,2.44.26,3.67.12,1.72.26,3.44.37,5.16,0,.55,0,.58.6.58h6.93c3.67,0,7.34,0,11,0a.75.75,0,0,1,.83.53c1.11,2.65,2.25,5.29,3.38,7.94q2,4.74,4,9.47c.13.31.27.4.59.27q4.74-1.87,9.48-3.72c.33-.13.38-.27.24-.59-.41-.94-.8-1.89-1.2-2.84-.22-.53-.22-.54-.75-.35l-4.88,1.76c-.22.08-.37.1-.49-.18q-2.16-5-4.34-10c-1-2.22-1.93-4.43-2.87-6.66a.74.74,0,0,0-.81-.51c-1.9,0-3.8,0-5.7.07s-4,0-6,0c-1.61,0-3.22,0-4.83,0-.63,0-.64,0-.68-.63s-.09-1.34-.15-2,0-.62.55-.62Zm8.33,15.24-.06,0a.56.56,0,0,0,0,.12,13.74,13.74,0,0,1-5.06,8.87,13.35,13.35,0,0,1-10.15,3,13.23,13.23,0,0,1-9.37-5.13,13.53,13.53,0,0,1-1.71-14.71,12.67,12.67,0,0,1,4.73-5.52.54.54,0,0,0,.27-.59c-.08-.86-.12-1.73-.18-2.6s-.11-1.47-.17-2.21c0-.46-.09-.49-.5-.29a18.9,18.9,0,0,0-2.09,1.21,19.22,19.22,0,0,0-5.86,6.08,18.85,18.85,0,0,0-2.08,15.16,19,19,0,0,0,7.81,10.68,18.54,18.54,0,0,0,11.82,3.2,18.81,18.81,0,0,0,4.58-.86,19.29,19.29,0,0,0,7-4,19.7,19.7,0,0,0,4.15-5.2.89.89,0,0,0,0-.93c-.93-1.86-1.85-3.74-2.77-5.61A3.23,3.23,0,0,0,44.78,48.13Z"/></g></g></svg>