<svg width="1444" height="492" viewBox="0 0 1444 492" fill="none" xmlns="http://www.w3.org/2000/svg">
<rect width="1444" height="492" fill="#FFE8D3"/>
<path d="M124.629 145.706H109.149L106.269 153.686H95.7094L111.069 111.086H122.709L138.069 153.686H127.509L124.629 145.706ZM121.149 136.106L116.889 124.226L112.629 136.106H121.149ZM173.567 145.706H158.087L155.207 153.686H144.647L160.007 111.086H171.647L187.007 153.686H176.447L173.567 145.706ZM170.087 136.106L165.827 124.226L161.567 136.106H170.087ZM262.213 111.086V153.686H252.013V129.146L240.853 146.726H237.133L225.973 129.146V153.686H215.773V111.086H225.973L238.993 131.066L252.013 111.086H262.213ZM280.845 120.686V127.526H292.845V137.126H280.845V144.086H295.845V153.686H270.645V111.086H295.845V120.686H280.845ZM313.259 120.686V127.526H325.259V137.126H313.259V144.086H328.259V153.686H303.059V111.086H328.259V120.686H313.259ZM364.873 120.686H355.273V153.686H345.073V120.686H335.473V111.086H364.873V120.686ZM372.12 111.086H382.32V153.686H372.12V111.086ZM428.94 111.086V153.686H418.74L400.32 128.066V153.686H390.12V111.086H400.32L418.74 136.706V111.086H428.94ZM479.101 128.966C479.101 134.406 478.181 139.026 476.341 142.826C474.501 146.626 471.941 149.486 468.661 151.406C465.381 153.326 461.601 154.286 457.321 154.286C453.361 154.286 449.761 153.306 446.521 151.346C443.321 149.346 440.781 146.686 438.901 143.366C437.061 140.006 436.141 136.346 436.141 132.386C436.141 128.426 437.081 124.766 438.961 121.406C440.881 118.046 443.541 115.386 446.941 113.426C450.341 111.466 454.201 110.486 458.521 110.486C461.961 110.486 465.061 111.246 467.821 112.766C470.621 114.246 473.061 116.326 475.141 119.006L467.461 124.886C466.501 123.526 465.261 122.386 463.741 121.466C462.261 120.546 460.521 120.086 458.521 120.086C456.121 120.086 454.001 120.626 452.161 121.706C450.321 122.746 448.881 124.206 447.841 126.086C446.841 127.966 446.341 130.066 446.341 132.386C446.341 134.706 446.781 136.806 447.661 138.686C448.581 140.566 449.861 142.046 451.501 143.126C453.181 144.166 455.121 144.686 457.321 144.686C459.801 144.686 461.921 144.166 463.681 143.126C465.481 142.046 466.821 140.526 467.701 138.566H454.621V128.966H479.101ZM516.884 120.686V128.126H530.084V137.726H516.884V153.686H506.684V111.086H531.884V120.686H516.884ZM539.112 111.086H549.312V153.686H539.112V111.086ZM595.932 111.086V153.686H585.732L567.312 128.066V153.686H557.112V111.086H567.312L585.732 136.706V111.086H595.932ZM618.944 111.086C622.904 111.086 626.464 112.026 629.624 113.906C632.824 115.786 635.324 118.346 637.124 121.586C638.924 124.826 639.824 128.426 639.824 132.386C639.824 136.346 638.924 139.946 637.124 143.186C635.324 146.426 632.824 148.986 629.624 150.866C626.464 152.746 622.904 153.686 618.944 153.686H603.164V111.086H618.944ZM618.944 144.086C622.024 144.086 624.564 143.126 626.564 141.206C628.604 139.246 629.624 136.306 629.624 132.386C629.624 128.466 628.604 125.546 626.564 123.626C624.564 121.666 622.024 120.686 618.944 120.686H613.364V144.086H618.944ZM656.677 120.686V127.526H668.677V137.126H656.677V144.086H671.677V153.686H646.477V111.086H671.677V120.686H656.677ZM694.131 141.446H689.091V153.686H678.891V111.086H695.991C698.791 111.086 701.411 111.706 703.851 112.946C706.331 114.186 708.311 115.966 709.791 118.286C711.311 120.566 712.071 123.226 712.071 126.266C712.071 129.186 711.371 131.786 709.971 134.066C708.611 136.306 706.751 138.066 704.391 139.346L712.671 153.686H701.211L694.131 141.446ZM689.091 131.846H695.991C697.711 131.846 699.111 131.346 700.191 130.346C701.311 129.346 701.871 127.986 701.871 126.266C701.871 124.546 701.311 123.186 700.191 122.186C699.111 121.186 697.711 120.686 695.991 120.686H689.091V131.846Z" fill="#3852A7"/>
<path fill-rule="evenodd" clip-rule="evenodd" d="M230.695 0C228.139 4.40894 225.575 8.814 223.005 13.2152C221.788 15.3199 220.05 17.1106 217.942 18.432C212.73 21.7437 211.866 24.6287 215.022 29.7324C216.209 31.4773 216.892 33.4889 217.002 35.5647C217.112 37.6406 216.646 39.7075 215.65 41.5574C213.497 45.9821 212.025 50.6189 210.548 55.2706C210.327 55.9657 210.106 56.6611 209.883 57.3562C205.371 71.9633 197.064 85.2528 185.729 95.9973C185.265 96.4356 184.684 96.9286 184.088 97.4347C182.424 98.8473 180.64 100.361 180.929 101.07C182.475 105.076 180.38 107.646 178.349 110.136L178.349 110.136C177.603 111.051 176.865 111.956 176.32 112.916C168.619 126.365 161.469 140.101 154.312 153.85L154.312 153.851C153.074 156.229 151.836 158.607 150.595 160.984C148.139 165.697 145.148 170.127 142.156 174.56C138.526 179.937 134.893 185.318 132.207 191.215C130.27 195.397 128.322 199.454 121.165 198.896C125.053 201.537 124.292 203.345 122.267 205.382C122.133 205.514 121.999 205.645 121.863 205.778C119.39 208.198 116.816 210.717 118.967 214.661C118.237 214.753 117.68 214.255 117.15 213.781C116.307 213.027 115.534 212.335 114.246 214.183C112.341 216.912 108.655 227.336 108.922 231.012C108.967 231.687 108.721 231.73 108.316 231.801L108.315 231.801C108.282 231.806 108.248 231.812 108.213 231.819C108.171 231.819 106.98 233.101 105.829 234.341L105.827 234.342L105.821 234.35L105.819 234.351L105.816 234.355L105.811 234.36L105.811 234.36L105.81 234.361L105.803 234.369L105.795 234.378L105.794 234.379C104.73 235.525 103.71 236.623 103.676 236.623C102.392 237.242 101.841 238.533 101.283 239.84C100.356 242.014 99.41 244.23 95.0413 243.46C97.7676 245.504 97.9479 246.601 95.9235 248.089C94.5881 249.074 93.4752 250.306 92.6513 251.71C91.8274 253.114 91.3095 254.661 91.1285 256.26C91.0295 257.097 91.5085 257.818 91.9905 258.543C92.6054 259.468 93.2253 260.401 92.6567 261.592C91.652 263.791 90.3047 263.107 88.9688 262.43C88.6454 262.266 88.3226 262.102 88.0056 261.98C87.9809 261.975 87.9369 262.037 87.8829 262.113C87.8264 262.192 87.7589 262.286 87.6916 262.335C85.5254 264.026 84.0794 270.518 85.8862 272.339C88.2581 274.718 87.6795 276.199 85.4116 278.255C81.8681 281.473 79.0381 293.581 81.6014 296.471C84.5884 299.881 82.807 301.187 79.772 302.462C80.4686 303.51 81.5306 303.753 82.5898 303.996C83.7698 304.266 84.9462 304.535 85.6099 305.915C82.2421 306.69 80.6413 308.862 79.3222 311.852C77.4654 316.044 80.3453 316.943 84.4783 318.113L76.4472 320.574C79.9835 321.878 80.1528 323.465 78.1278 325.387C76.8317 326.655 77.6087 327.56 78.8506 328.582C79.2809 328.936 79.8135 329.149 80.3551 329.366C81.3763 329.775 82.4295 330.197 82.8896 331.599C78.9562 332.084 76.0122 333.34 75.4793 337.852C73.6654 353.089 71.5281 368.296 67.2279 383.125C66.2112 386.722 66.1466 389.175 71.263 388.606C72.6685 388.444 74.2755 388.754 72.8367 390.724C70.4066 394.074 72.4759 396.189 74.4553 398.211L74.4555 398.212C74.9519 398.719 75.4426 399.22 75.8552 399.734C77.9135 402.296 80.907 401.608 83.5786 399.995C83.6145 399.973 83.6506 399.951 83.6866 399.928C83.7454 399.892 83.8044 399.855 83.8635 399.818C85.013 399.097 86.2249 398.338 87.6232 399.539C91.2072 402.604 91.3723 400.526 90.9929 397.543C90.8613 397.071 90.9232 396.569 91.1661 396.139C91.4089 395.709 91.8146 395.383 92.3008 395.226C93.1226 395.403 93.5083 396.11 93.8973 396.823C94.4269 397.794 94.9626 398.776 96.6125 398.446C101.264 397.52 108.083 388.361 107.14 383.886C106.898 383.205 106.922 382.464 107.207 381.798C107.492 381.132 108.019 380.587 108.692 380.261C113.084 377.881 117.526 375.521 122.692 375.134C123.03 375.109 123.379 375.068 123.729 375.026C125.926 374.766 128.183 374.498 128.177 378.307C128.173 380.48 130.461 379.956 131.997 379.605C132.073 379.587 132.147 379.57 132.219 379.554C134.25 379.092 136.263 378.574 138.276 378.057C140.633 377.452 142.988 376.846 145.367 376.331C152.587 374.802 156.962 370.585 159.54 364.066C161.983 357.879 163.276 351.456 164.57 345.032L164.571 345.031C165.073 342.539 165.575 340.048 166.144 337.569C167.935 329.904 168.543 322.92 159.956 318.79C160.627 317.226 162.46 316.536 163.535 316.132C164.119 315.913 164.479 315.777 164.308 315.631C161.436 312.972 163.068 311.833 164.684 310.705C165.339 310.247 165.992 309.791 166.341 309.236C166.959 308.246 166.415 307.081 165.83 306.051C165.677 305.783 165.502 305.514 165.325 305.242L165.325 305.242C164.676 304.246 164.006 303.216 164.31 302.075C164.894 299.866 165.239 297.615 165.583 295.364C166.349 290.36 167.115 285.353 170.511 280.793C172.753 277.785 174.977 274.767 177.201 271.75L177.201 271.75C184.425 261.951 191.635 252.169 199.364 242.794C202.458 239.045 205.212 235.06 207.966 231.074L207.966 231.074C211.487 225.979 215.008 220.883 219.242 216.279C220.687 214.707 221.887 213.479 222.864 212.479C225.035 210.257 226.109 209.158 226.34 207.904C226.565 206.676 225.982 205.3 224.828 202.576C224.289 201.304 223.625 199.737 222.861 197.754C221.21 193.451 222.064 190.47 225.597 187.589C228.795 185.005 231.893 182.229 233.477 178.383C235.646 173.138 239.582 168.724 244.668 165.835L244.803 165.754L244.982 165.647C247.739 164.002 250.922 162.103 251.2 158.878C251.245 158.339 251.293 157.797 251.34 157.254C251.996 149.812 252.678 142.076 246.394 136.185C240.145 130.317 238.792 123.407 239.431 115.635C239.62 113.394 239.726 111.146 239.832 108.897L239.832 108.895C239.899 107.466 239.966 106.037 240.055 104.61C240.491 97.4237 240.806 90.2758 239.665 83.0873C239.457 81.7832 239.216 80.4725 238.974 79.1581L238.974 79.157C237.844 73.0125 236.698 66.7855 238.831 60.7655C239.897 57.7725 240.844 54.7425 241.791 51.712L241.791 51.7117C243.749 45.4442 245.708 39.1745 248.722 33.2256C250.546 29.6339 252.561 26.1336 254.575 22.6344L254.575 22.6338L254.575 22.6335C258.039 16.6168 261.5 10.6034 263.984 4.13478C264.463 2.63198 265.215 1.23449 266.193 0H230.695ZM250.712 196.8C251.856 197.291 252.993 197.78 254.099 198.29C260.086 196.74 264.005 193.032 265.155 188.175C267.221 179.731 271.962 173.446 278.815 168.203C280.687 166.772 282.258 164.677 281.594 162.492C279.1 154.282 273.641 148.001 266.288 143.276C264.178 141.916 261.519 141.893 258.96 142.457C258.82 142.494 258.68 142.528 258.541 142.561C257.542 142.801 256.642 143.017 256.551 144.378C256.43 146.234 255.981 148.045 255.533 149.856C254.945 152.229 254.358 154.602 254.509 157.074C254.932 164.223 251.718 169.683 246.05 174.091C245.522 174.501 244.975 174.9 244.427 175.301C242.83 176.466 241.221 177.641 240.037 179.114C239.919 179.26 239.798 179.408 239.676 179.559C237.621 182.084 235.013 185.288 237.222 188.106C240.61 192.46 245.733 194.661 250.712 196.8ZM230.375 214.871C230.535 217.224 229.869 219.561 228.484 221.516C225.133 226.368 221.934 231.321 218.735 236.273C210.527 248.979 202.318 261.687 191.542 272.713C191.155 273.229 190.718 273.708 190.236 274.145C189.941 274.339 189.641 274.57 189.336 274.805C188.131 275.732 186.841 276.725 185.431 275.802C184.488 275.193 185.01 274.061 185.49 273.019C185.663 272.643 185.831 272.279 185.922 271.955C187.509 266.184 190.812 261.129 194.54 256.4C203.202 245.416 211.227 234.027 219.04 222.493C221.32 219.129 223.762 215.871 227.334 213.606C227.955 213.107 228.737 212.823 229.55 212.801C230.501 212.978 230.434 213.702 230.379 214.297C230.359 214.517 230.34 214.72 230.375 214.871ZM81.0827 430.759C83.2171 429.954 83.9882 428.243 83.7409 424.885C82.9781 421.382 80.0921 418.049 75.8801 415.714C72.2295 413.737 69.7215 415.829 67.3371 417.818C67.2211 417.914 67.1054 418.011 66.9899 418.107C64.4415 420.204 62.3312 422.697 60.213 425.2L60.2127 425.201C57.8294 428.017 55.4361 430.845 52.3977 433.133C49.7053 435.149 51.3082 437.99 53.7421 439.571C54.3554 439.97 54.9313 440.534 55.5144 441.106L55.5147 441.106C57.2453 442.803 59.0399 444.563 62.0682 442.229C67.9289 437.715 74.0016 433.453 81.0827 430.759ZM17.6648 432.952C17.8374 433.064 18.0081 433.175 18.1761 433.285C19.804 433.162 23.5206 429.185 23.4415 428.107C23.2719 426.635 17.304 422.316 15.605 422.669C13.1375 423.166 11.537 425.146 12.1201 427.138C12.8854 429.854 15.4296 431.504 17.6648 432.952ZM229.136 199.553C229.262 196.917 229.75 194.676 232.864 194.642C234.775 194.644 236.977 195.61 236.904 197.476C236.747 200.362 234.125 202.494 231.567 203.154C229.782 203.598 229.5 201.785 229.278 200.362C229.232 200.068 229.189 199.79 229.136 199.553ZM31.2609 406.317C32.3836 406.001 33.82 405.455 33.8827 404.156C33.6038 401.578 28.2319 397.539 25.9566 397.959C25.6671 397.975 25.3846 398.05 25.1282 398.179C24.8719 398.308 24.6477 398.488 24.4709 398.707C24.2941 398.925 24.1689 399.178 24.1036 399.447C24.0383 399.715 24.0346 399.995 24.0927 400.265C24.3321 402.305 29.4504 406.825 31.2609 406.317ZM27.1547 407.36C26.7738 407.823 26.404 408.389 26.0318 408.959C25.1763 410.268 24.3083 411.596 23.2655 411.742C22.1613 411.738 21.1029 411.321 20.3176 410.583C19.5324 409.844 19.0831 408.842 19.0662 407.791C19.1404 405.684 20.8624 403.57 22.8543 403.38C24.7148 403.2 26.0053 405.396 27.1547 407.36ZM178.149 282.302C179.686 280.751 181.302 279.119 180.214 275.814C179.495 276.57 178.714 277.202 177.964 277.81C176.272 279.18 174.733 280.426 174.4 282.685L174.399 282.693C174.287 283.47 174.158 284.359 175.165 284.706C175.393 284.756 175.631 284.75 175.856 284.688C176.081 284.626 176.285 284.51 176.45 284.352C176.86 283.602 177.497 282.959 178.149 282.302Z" fill="#3852A7"/>
<path fill-rule="evenodd" clip-rule="evenodd" d="M272.74 148.312C274.468 149.963 276.011 151.751 277.346 153.686H272.74V148.312ZM264.21 142.38V153.686H254.702C254.903 152.399 255.218 151.127 255.533 149.856C255.982 148.045 256.43 146.234 256.551 144.378C256.642 143.018 257.542 142.801 258.541 142.561C258.68 142.528 258.82 142.494 258.96 142.457C260.734 142.066 262.556 141.957 264.21 142.38ZM241.57 129.776C242.678 132.031 244.247 134.169 246.394 136.185C247.051 136.802 247.633 137.438 248.145 138.092L242.601 146.726H238.838L227.548 129.146V153.686H217.229V111.086H227.548L240.719 131.066L241.57 129.776ZM154.398 153.686H155.957L158.87 145.706H174.531L177.444 153.686H188.127L174.454 116.2C172.272 120.067 170.131 123.955 168.019 127.859L171.01 136.106H163.605C160.508 141.949 157.453 147.816 154.398 153.686Z" fill="#FFE8D3"/>
</svg>
